<svg id="visual" viewBox="0 0 3840 1080" width="3840" height="1080" xmlns="http://www.w3.org/2000/svg" xmlns:xlink="http://www.w3.org/1999/xlink" version="1.1"><rect x="0" y="0" width="3840" height="1080" fill="#001220"></rect><path d="M0 846L49.2 846.2C98.3 846.3 196.7 846.7 295.2 836.5C393.7 826.3 492.3 805.7 590.8 783.2C689.3 760.7 787.7 736.3 886.2 756.3C984.7 776.3 1083.3 840.7 1181.8 841.7C1280.3 842.7 1378.7 780.3 1477 774.5C1575.3 768.7 1673.7 819.3 1772.2 827.2C1870.7 835 1969.3 800 2067.8 804C2166.3 808 2264.7 851 2363 872.2C2461.3 893.3 2559.7 892.7 2658.2 861.2C2756.7 829.7 2855.3 767.3 2953.8 765.7C3052.3 764 3150.7 823 3249.2 844.2C3347.7 865.3 3446.3 848.7 3544.8 824.5C3643.3 800.3 3741.7 768.7 3790.8 752.8L3840 737L3840 1081L3790.8 1081C3741.7 1081 3643.3 1081 3544.8 1081C3446.3 1081 3347.7 1081 3249.2 1081C3150.7 1081 3052.3 1081 2953.8 1081C2855.3 1081 2756.7 1081 2658.2 1081C2559.7 1081 2461.3 1081 2363 1081C2264.7 1081 2166.3 1081 2067.8 1081C1969.3 1081 1870.7 1081 1772.2 1081C1673.7 1081 1575.3 1081 1477 1081C1378.7 1081 1280.3 1081 1181.8 1081C1083.3 1081 984.7 1081 886.2 1081C787.7 1081 689.3 1081 590.8 1081C492.3 1081 393.7 1081 295.2 1081C196.7 1081 98.3 1081 49.2 1081L0 1081Z" fill="#30f0cd" stroke-linecap="round" stroke-linejoin="miter"></path></svg>