<svg id="visual" viewBox="0 0 3840 2160" width="3840" height="2160" xmlns="http://www.w3.org/2000/svg" xmlns:xlink="http://www.w3.org/1999/xlink" version="1.1"><rect x="0" y="0" width="3840" height="2160" fill="#001220"></rect><path d="M0 1693L49.2 1693.3C98.3 1693.7 196.7 1694.3 295.2 1673.8C393.7 1653.3 492.3 1611.7 590.8 1566.8C689.3 1522 787.7 1474 886.2 1514.2C984.7 1554.3 1083.3 1682.7 1181.8 1684.7C1280.3 1686.7 1378.7 1562.3 1477 1550.7C1575.3 1539 1673.7 1640 1772.2 1655.5C1870.7 1671 1969.3 1601 2067.8 1609C2166.3 1617 2264.7 1703 2363 1745.3C2461.3 1787.7 2559.7 1786.3 2658.2 1723.5C2756.7 1660.7 2855.3 1536.3 2953.8 1533C3052.3 1529.7 3150.7 1647.3 3249.2 1689.5C3347.7 1731.7 3446.3 1698.3 3544.8 1650.2C3643.3 1602 3741.7 1539 3790.8 1507.5L3840 1476L3840 2161L3790.8 2161C3741.7 2161 3643.3 2161 3544.8 2161C3446.3 2161 3347.7 2161 3249.2 2161C3150.7 2161 3052.3 2161 2953.8 2161C2855.3 2161 2756.7 2161 2658.2 2161C2559.7 2161 2461.3 2161 2363 2161C2264.7 2161 2166.3 2161 2067.8 2161C1969.3 2161 1870.7 2161 1772.2 2161C1673.7 2161 1575.3 2161 1477 2161C1378.7 2161 1280.3 2161 1181.8 2161C1083.3 2161 984.7 2161 886.2 2161C787.7 2161 689.3 2161 590.8 2161C492.3 2161 393.7 2161 295.2 2161C196.7 2161 98.3 2161 49.2 2161L0 2161Z" fill="#30f0cd" stroke-linecap="round" stroke-linejoin="miter"></path></svg>