<svg id="visual" viewBox="0 0 2560 1440" width="2560" height="1440" xmlns="http://www.w3.org/2000/svg" xmlns:xlink="http://www.w3.org/1999/xlink" version="1.1"><rect x="0" y="0" width="2560" height="1440" fill="#1f1f1f"></rect><path d="M0 431L61 424C122 417 244 403 365.8 380.7C487.7 358.3 609.3 327.7 731.2 337.5C853 347.3 975 397.7 1097 402.8C1219 408 1341 368 1463 374.3C1585 380.7 1707 433.3 1828.8 450.8C1950.7 468.3 2072.3 450.7 2194.2 434.2C2316 417.7 2438 402.3 2499 394.7L2560 387L2560 0L2499 0C2438 0 2316 0 2194.2 0C2072.3 0 1950.7 0 1828.8 0C1707 0 1585 0 1463 0C1341 0 1219 0 1097 0C975 0 853 0 731.2 0C609.3 0 487.7 0 365.8 0C244 0 122 0 61 0L0 0Z" fill="#30f0cd" stroke-linecap="round" stroke-linejoin="miter"></path></svg>