<svg id="visual" viewBox="0 0 2560 1440" width="2560" height="1440" xmlns="http://www.w3.org/2000/svg" xmlns:xlink="http://www.w3.org/1999/xlink" version="1.1"><rect x="0" y="0" width="2560" height="1440" fill="#1f1f1f"></rect><path d="M0 489L61 446.3C122 403.7 244 318.3 365.8 309.7C487.7 301 609.3 369 731.2 390.8C853 412.7 975 388.3 1097 358.7C1219 329 1341 294 1463 316.8C1585 339.7 1707 420.3 1828.8 462.3C1950.7 504.3 2072.3 507.7 2194.2 484.5C2316 461.3 2438 411.7 2499 386.8L2560 362L2560 0L2499 0C2438 0 2316 0 2194.2 0C2072.3 0 1950.7 0 1828.8 0C1707 0 1585 0 1463 0C1341 0 1219 0 1097 0C975 0 853 0 731.2 0C609.3 0 487.7 0 365.8 0C244 0 122 0 61 0L0 0Z" fill="#30f0cd" stroke-linecap="round" stroke-linejoin="miter"></path></svg>