<svg id="visual" viewBox="0 0 2560 1440" width="2560" height="1440" xmlns="http://www.w3.org/2000/svg" xmlns:xlink="http://www.w3.org/1999/xlink" version="1.1"><rect x="0" y="0" width="2560" height="1440" fill="#1f1f1f"></rect><path d="M0 949L61 991.7C122 1034.3 244 1119.7 365.8 1128.3C487.7 1137 609.3 1069 731.2 1047.2C853 1025.3 975 1049.7 1097 1079.3C1219 1109 1341 1144 1463 1121.2C1585 1098.3 1707 1017.7 1828.8 975.7C1950.7 933.7 2072.3 930.3 2194.2 953.5C2316 976.7 2438 1026.3 2499 1051.2L2560 1076L2560 1441L2499 1441C2438 1441 2316 1441 2194.2 1441C2072.3 1441 1950.7 1441 1828.8 1441C1707 1441 1585 1441 1463 1441C1341 1441 1219 1441 1097 1441C975 1441 853 1441 731.2 1441C609.3 1441 487.7 1441 365.8 1441C244 1441 122 1441 61 1441L0 1441Z" fill="#30f0cd" stroke-linecap="round" stroke-linejoin="miter"></path></svg>